<?xml version="1.0" encoding="UTF-8" standalone="no"?>
<!DOCTYPE svg PUBLIC "-//W3C//DTD SVG 1.1//EN" "http://www.w3.org/Graphics/SVG/1.1/DTD/svg11.dtd">
<!-- Created with Vectornator (http://vectornator.io/) -->
<svg height="100%" stroke-miterlimit="10" style="fill-rule:nonzero;clip-rule:evenodd;stroke-linecap:round;stroke-linejoin:round;" version="1.1" viewBox="0 0 1024 1024" width="100%" xml:space="preserve" xmlns="http://www.w3.org/2000/svg" xmlns:xlink="http://www.w3.org/1999/xlink">
<defs/>
<g id="Ebene-1">
<g opacity="1">
<path d="M512 17.9311C237.745 17.9311 15.3859 240.29 15.3859 514.545C15.3859 763.514 198.802 969.113 437.756 1005.03L437.756 646.148L314.886 646.148L314.886 515.621L437.756 515.621L437.756 428.755C437.756 284.944 507.82 221.833 627.339 221.833C684.573 221.833 714.867 226.095 729.186 227.999L729.186 341.93L647.658 341.93C596.921 341.93 579.208 390.061 579.208 444.274L579.208 515.621L727.903 515.621L707.749 646.148L579.208 646.148L579.208 1006.07C821.597 973.21 1008.61 765.956 1008.61 514.545C1008.61 240.29 786.255 17.9311 512 17.9311Z" fill="#2d3c4b" fill-rule="nonzero" opacity="1" stroke="none"/>
</g>
</g>
</svg>
