<?xml version="1.0" encoding="UTF-8" standalone="no"?>
<!DOCTYPE svg PUBLIC "-//W3C//DTD SVG 1.1//EN" "http://www.w3.org/Graphics/SVG/1.1/DTD/svg11.dtd">
<!-- Created with Vectornator (http://vectornator.io/) -->
<svg height="100%" stroke-miterlimit="10" style="fill-rule:nonzero;clip-rule:evenodd;stroke-linecap:round;stroke-linejoin:round;" version="1.1" viewBox="0 0 1024 1024" width="100%" xml:space="preserve" xmlns="http://www.w3.org/2000/svg" xmlns:xlink="http://www.w3.org/1999/xlink">
<defs>
<filter color-interpolation-filters="sRGB" filterUnits="userSpaceOnUse" height="1106.75" id="Filter" width="1106.75" x="-25.61" y="-25.61">
<feDropShadow dx="15.7636" dy="15.7636" flood-color="#000000" flood-opacity="0.2" in="SourceGraphic" result="Shadow" stdDeviation="25"/>
</filter>
<path d="M21.1264 512C21.1264 240.898 240.898 21.1264 512 21.1264C783.102 21.1264 1002.87 240.898 1002.87 512C1002.87 783.102 783.102 1002.87 512 1002.87C240.898 1002.87 21.1264 783.102 21.1264 512Z" id="Fill"/>
</defs>
<clipPath id="ArtboardFrame">
<rect height="1024" width="1024" x="0" y="0"/>
</clipPath>
<g clip-path="url(#ArtboardFrame)" id="Ebene-1">
<path d="M0 4.88853e-12L1024 4.88853e-12L1024 1024L0 1024L0 4.88853e-12Z" fill="#52b7c1" fill-rule="nonzero" opacity="0" stroke="none"/>
<g opacity="0">
<path d="M731.966 17.0763L292.034 17.0763C140.422 17.0763 17.0763 140.422 17.0763 292.034L17.0763 731.966C17.0763 883.578 140.422 1006.92 292.034 1006.92L731.966 1006.92C883.578 1006.92 1006.92 883.578 1006.92 731.966L1006.92 292.034C1006.92 140.422 883.578 17.0763 731.966 17.0763ZM896.941 731.966C896.941 822.922 822.922 896.941 731.966 896.941L292.034 896.941C201.078 896.941 127.059 822.922 127.059 731.966L127.059 292.034C127.059 201.078 201.078 127.059 292.034 127.059L731.966 127.059C822.922 127.059 896.941 201.078 896.941 292.034L896.941 731.966Z" fill="#ffffff" fill-rule="nonzero" opacity="1" stroke="none"/>
<path d="M512 237.042C360.388 237.042 237.042 360.388 237.042 512C237.042 663.612 360.388 786.958 512 786.958C663.612 786.958 786.958 663.612 786.958 512C786.958 360.388 663.612 237.042 512 237.042ZM512 676.975C421.044 676.975 347.025 602.956 347.025 512C347.025 421.044 421.044 347.025 512 347.025C602.956 347.025 676.975 421.044 676.975 512C676.975 602.956 602.956 676.975 512 676.975ZM786.958 182.051C756.587 182.051 731.966 206.671 731.966 237.042C731.966 267.413 756.587 292.034 786.958 292.034C817.329 292.034 841.949 267.413 841.949 237.042C841.949 206.671 817.329 182.051 786.958 182.051Z" fill="#ffffff" fill-rule="nonzero" opacity="1" stroke="none"/>
</g>
<g opacity="0">
<path d="M512 17.9311C237.745 17.9311 15.3859 240.29 15.3859 514.545C15.3859 763.514 198.802 969.113 437.756 1005.03L437.756 646.148L314.886 646.148L314.886 515.621L437.756 515.621L437.756 428.755C437.756 284.944 507.82 221.833 627.339 221.833C684.573 221.833 714.867 226.095 729.186 227.999L729.186 341.93L647.658 341.93C596.921 341.93 579.208 390.061 579.208 444.274L579.208 515.621L727.903 515.621L707.749 646.148L579.208 646.148L579.208 1006.07C821.597 973.21 1008.61 765.956 1008.61 514.545C1008.61 240.29 786.255 17.9311 512 17.9311Z" fill="#ffffff" fill-rule="nonzero" opacity="1" stroke="none"/>
</g>
<g opacity="0">
<path d="M441.886 682.09L585.082 682.09L585.082 1003.92L441.886 1003.92L441.886 682.09" fill="#ffffff" fill-rule="nonzero" opacity="1" stroke="none"/>
<path d="M110.792 352.631L354.115 352.631L180.876 188.659L276.339 91.3784L441.159 259.954L441.159 20.0835L584.355 20.0835L584.355 259.894L749.115 91.3178L844.578 188.599L671.338 352.571L914.722 352.571L914.722 488.195L669.824 488.195L843.851 656.77L748.388 751.81L511.97 515.029L275.552 751.81L180.088 656.77L354.115 488.195L109.278 488.195L109.278 352.631L110.792 352.631" fill="#ffffff" fill-rule="nonzero" opacity="1" stroke="none"/>
</g>
<g opacity="0">
<path d="M117.788 310.378L906.212 310.378" fill="none" opacity="1" stroke="#ffffff" stroke-linecap="butt" stroke-linejoin="miter" stroke-width="80.6488"/>
<path d="M552.324 592.649L713.622 995.893L789.472 887.541L915.244 995.893L995.853 905.365L863.145 795.158L955.569 713.622L552.324 592.649Z" fill="#ffffff" fill-rule="nonzero" opacity="1" stroke="none"/>
<path d="M512 28.1069C245.173 28.1069 28.1069 245.173 28.1069 512C28.1069 778.827 245.173 995.893 512 995.893C549.744 995.893 586.278 991.135 621.561 982.909L569.987 853.911C550.51 893.227 529.622 915.244 512 915.244C482.684 915.244 444.255 855.362 418.689 753.947L529.985 753.947L497.725 673.298L402.6 673.298C397.64 640.232 394.333 603.98 392.599 565.672L374.655 568.696L374.655 471.676L391.793 471.676C399.253 251.948 466.554 108.756 512 108.756C557.446 108.756 624.747 251.948 632.207 471.676L431.351 471.676L431.633 472.24L495.427 491.394L712.654 556.558C712.695 555.147 712.856 553.736 712.896 552.324L913.188 552.324C911.091 573.212 907.341 593.576 902.139 613.416L979.037 636.481C989.683 596.681 995.893 555.107 995.893 512C995.893 245.173 778.827 28.1069 512 28.1069ZM142.669 673.298C126.136 635.594 115.046 594.988 110.812 552.324L311.104 552.324C312.434 593.415 315.862 634.062 321.225 673.298L142.669 673.298ZM383.809 893.993C305.862 867.782 238.721 818.345 190.171 753.947L335.581 753.947C347.476 807.175 363.606 855.04 383.809 893.993ZM311.104 471.676L110.812 471.676C126.74 311.91 236.423 179.606 383.849 130.007C339.936 214.486 315.297 341.307 311.104 471.676ZM712.896 471.676C708.703 341.307 684.064 214.486 640.191 130.007C787.577 179.606 897.26 311.91 913.228 471.676L712.896 471.676Z" fill="#ffffff" fill-rule="nonzero" opacity="1" stroke="none"/>
<path d="M512 955.569C422.923 955.569 350.702 756.971 350.702 512C350.702 267.029 422.923 68.4313 512 68.4313" fill="none" opacity="1" stroke="#ffffff" stroke-linecap="butt" stroke-linejoin="miter" stroke-width="80.6488"/>
</g>
<g opacity="0">
<path d="M911.749 22.5113L112.251 22.5113C63.302 22.5113 22.5113 63.302 22.5113 112.251L22.5113 911.749C22.5113 960.698 63.302 1001.49 112.251 1001.49L911.749 1001.49C960.698 1001.49 1001.49 960.698 1001.49 911.749L1001.49 112.251C1001.49 63.302 960.698 22.5113 911.749 22.5113ZM308.046 838.326L144.883 838.326L144.883 389.628L308.046 389.628L308.046 838.326ZM226.465 336.6L226.465 336.6C177.516 336.6 144.883 303.967 144.883 263.177C144.883 218.307 177.516 185.674 226.465 185.674C275.414 185.674 308.046 218.307 308.046 259.098C308.046 303.967 275.414 336.6 226.465 336.6ZM879.117 838.326L715.954 838.326L715.954 593.581C715.954 528.316 671.084 512 658.847 512C646.609 512 593.581 520.158 593.581 593.581C593.581 601.74 593.581 838.326 593.581 838.326L430.419 838.326L430.419 389.628L593.581 389.628L593.581 454.893C618.056 418.181 658.847 389.628 736.349 389.628C813.851 389.628 879.117 450.814 879.117 593.581L879.117 838.326Z" fill="#ffffff" fill-rule="nonzero" opacity="1" stroke="none"/>
</g>
<g filter="url(#Filter)">
<g opacity="1">
<mask height="981.747" id="StrokeMask" maskUnits="userSpaceOnUse" width="981.747" x="21.1264" y="21.1264">
<rect fill="#000000" height="981.747" stroke="none" width="981.747" x="21.1264" y="21.1264"/>
<use fill="#ffffff" fill-rule="evenodd" stroke="none" xlink:href="#Fill"/>
</mask>
<use fill="none" mask="url(#StrokeMask)" stroke="#2d3c4b" stroke-linecap="round" stroke-linejoin="round" stroke-width="250" xlink:href="#Fill"/>
</g>
<path d="M430.585 316.337L695.951 503.603L439.408 720.882" fill="none" opacity="1" stroke="#2d3c4b" stroke-linecap="round" stroke-linejoin="round" stroke-width="125"/>
</g>
<g opacity="0">
<path d="M689.903 467.288L688.711 142.501L363.58 228.023" fill="none" opacity="1" stroke="#ffffff" stroke-linecap="round" stroke-linejoin="round" stroke-width="110"/>
<path d="M161.009 881.499L523.157 364.298" fill="none" opacity="1" stroke="#ffffff" stroke-linecap="round" stroke-linejoin="round" stroke-width="110"/>
</g>
</g>
</svg>
