<?xml version="1.0" encoding="UTF-8" standalone="no"?>
<!DOCTYPE svg PUBLIC "-//W3C//DTD SVG 1.1//EN" "http://www.w3.org/Graphics/SVG/1.1/DTD/svg11.dtd">
<!-- Created with Vectornator (http://vectornator.io/) -->
<svg height="100%" stroke-miterlimit="10" style="fill-rule:nonzero;clip-rule:evenodd;stroke-linecap:round;stroke-linejoin:round;" version="1.1" viewBox="0 0 1024 1024" width="100%" xml:space="preserve" xmlns="http://www.w3.org/2000/svg" xmlns:xlink="http://www.w3.org/1999/xlink">
<defs/>
<g id="Ebene-1">
<g opacity="1">
<path d="M731.966 17.0763L292.034 17.0763C140.422 17.0763 17.0763 140.422 17.0763 292.034L17.0763 731.966C17.0763 883.578 140.422 1006.92 292.034 1006.92L731.966 1006.92C883.578 1006.92 1006.92 883.578 1006.92 731.966L1006.92 292.034C1006.92 140.422 883.578 17.0763 731.966 17.0763ZM896.941 731.966C896.941 822.922 822.922 896.941 731.966 896.941L292.034 896.941C201.078 896.941 127.059 822.922 127.059 731.966L127.059 292.034C127.059 201.078 201.078 127.059 292.034 127.059L731.966 127.059C822.922 127.059 896.941 201.078 896.941 292.034L896.941 731.966Z" fill="#2d3c4b" fill-rule="nonzero" opacity="1" stroke="none"/>
<path d="M512 237.042C360.388 237.042 237.042 360.388 237.042 512C237.042 663.612 360.388 786.958 512 786.958C663.612 786.958 786.958 663.612 786.958 512C786.958 360.388 663.612 237.042 512 237.042ZM512 676.975C421.044 676.975 347.025 602.956 347.025 512C347.025 421.044 421.044 347.025 512 347.025C602.956 347.025 676.975 421.044 676.975 512C676.975 602.956 602.956 676.975 512 676.975ZM786.958 182.051C756.587 182.051 731.966 206.671 731.966 237.042C731.966 267.413 756.587 292.034 786.958 292.034C817.329 292.034 841.949 267.413 841.949 237.042C841.949 206.671 817.329 182.051 786.958 182.051Z" fill="#2d3c4b" fill-rule="nonzero" opacity="1" stroke="none"/>
</g>
</g>
</svg>
