<?xml version="1.0" encoding="UTF-8" standalone="no"?>
<!DOCTYPE svg PUBLIC "-//W3C//DTD SVG 1.1//EN" "http://www.w3.org/Graphics/SVG/1.1/DTD/svg11.dtd">
<!-- Created with Vectornator (http://vectornator.io/) -->
<svg height="100%" stroke-miterlimit="10" style="fill-rule:nonzero;clip-rule:evenodd;stroke-linecap:round;stroke-linejoin:round;" version="1.1" viewBox="0 0 1024 1024" width="100%" xml:space="preserve" xmlns="http://www.w3.org/2000/svg" xmlns:xlink="http://www.w3.org/1999/xlink">
<defs/>
<g id="Ebene-1">
<g opacity="1">
<path d="M911.749 22.5113L112.251 22.5113C63.302 22.5113 22.5113 63.302 22.5113 112.251L22.5113 911.749C22.5113 960.698 63.302 1001.49 112.251 1001.49L911.749 1001.49C960.698 1001.49 1001.49 960.698 1001.49 911.749L1001.49 112.251C1001.49 63.302 960.698 22.5113 911.749 22.5113ZM308.046 838.326L144.883 838.326L144.883 389.628L308.046 389.628L308.046 838.326ZM226.465 336.6L226.465 336.6C177.516 336.6 144.883 303.967 144.883 263.177C144.883 218.307 177.516 185.674 226.465 185.674C275.414 185.674 308.046 218.307 308.046 259.098C308.046 303.967 275.414 336.6 226.465 336.6ZM879.117 838.326L715.954 838.326L715.954 593.581C715.954 528.316 671.084 512 658.847 512C646.609 512 593.581 520.158 593.581 593.581C593.581 601.74 593.581 838.326 593.581 838.326L430.419 838.326L430.419 389.628L593.581 389.628L593.581 454.893C618.056 418.181 658.847 389.628 736.349 389.628C813.851 389.628 879.117 450.814 879.117 593.581L879.117 838.326Z" fill="#ffffff" fill-rule="nonzero" opacity="1" stroke="none"/>
</g>
</g>
</svg>
