<?xml version="1.0" encoding="UTF-8" standalone="no"?>
<!DOCTYPE svg PUBLIC "-//W3C//DTD SVG 1.1//EN" "http://www.w3.org/Graphics/SVG/1.1/DTD/svg11.dtd">
<!-- Created with Vectornator (http://vectornator.io/) -->
<svg height="100%" stroke-miterlimit="10" style="fill-rule:nonzero;clip-rule:evenodd;stroke-linecap:round;stroke-linejoin:round;" version="1.1" viewBox="0 0 1024 1024" width="100%" xml:space="preserve" xmlns="http://www.w3.org/2000/svg" xmlns:xlink="http://www.w3.org/1999/xlink">
<defs/>
<g id="Ebene-1">
<g opacity="1">
<path d="M117.781 270.062L117.781 350.688L906.219 350.688L906.219 270.062L117.781 270.062Z" fill="#ffffff" fill-rule="nonzero" opacity="1" stroke="none"/>
<path d="M552.368 592.662C552.35 592.657 552.335 592.674 552.341 592.691L713.607 995.855C713.614 995.872 713.635 995.874 713.645 995.86L789.458 887.561C789.466 887.551 789.481 887.549 789.491 887.557L915.228 995.879C915.237 995.887 915.251 995.886 915.259 995.877L995.838 905.382C995.846 905.372 995.845 905.358 995.835 905.35L863.165 795.175C863.154 795.166 863.154 795.15 863.164 795.141L955.539 713.648C955.552 713.637 955.547 713.616 955.531 713.611L552.368 592.662Z" fill="#ffffff" fill-rule="nonzero" opacity="1" stroke="none"/>
<path d="M512 28.1069C245.173 28.1069 28.1069 245.173 28.1069 512C28.1069 778.827 245.173 995.893 512 995.893C549.744 995.893 586.278 991.135 621.561 982.909L569.987 853.911C550.51 893.227 529.622 915.244 512 915.244C482.684 915.244 444.255 855.362 418.689 753.947L529.952 753.947C529.968 753.947 529.978 753.931 529.973 753.916L497.731 673.312C497.727 673.303 497.719 673.298 497.71 673.298L402.6 673.298C397.64 640.232 394.333 603.98 392.599 565.672L374.681 568.692C374.667 568.694 374.655 568.684 374.655 568.67L374.655 471.698C374.655 471.685 374.665 471.676 374.677 471.676L391.793 471.676C399.253 251.948 466.554 108.756 512 108.756C557.446 108.756 624.747 251.948 632.207 471.676L431.387 471.676C431.37 471.676 431.36 471.693 431.367 471.707L431.629 472.232C431.632 472.237 431.637 472.241 431.643 472.243L495.427 491.394L712.654 556.558C712.695 555.147 712.856 553.736 712.896 552.324L913.188 552.324C911.091 573.212 907.341 593.576 902.139 613.416L979.037 636.481C989.683 596.681 995.893 555.107 995.893 512C995.893 245.173 778.827 28.1069 512 28.1069ZM142.669 673.298C126.136 635.594 115.046 594.988 110.812 552.324L311.104 552.324C312.434 593.415 315.862 634.062 321.225 673.298L142.669 673.298ZM383.809 893.993C305.862 867.782 238.721 818.345 190.171 753.947L335.581 753.947C347.476 807.175 363.606 855.04 383.809 893.993ZM311.104 471.676L110.812 471.676C126.74 311.91 236.423 179.606 383.849 130.007C339.936 214.486 315.297 341.307 311.104 471.676ZM712.896 471.676C708.703 341.307 684.064 214.486 640.191 130.007C787.577 179.606 897.26 311.91 913.228 471.676L712.896 471.676Z" fill="#ffffff" fill-rule="nonzero" opacity="1" stroke="none"/>
<path d="M512 28.0938C477 28.0938 445.359 45.9029 418.625 77C395.922 103.408 376.304 139.9 360.062 184.562C328.289 271.94 310.375 388.316 310.375 512C310.375 635.684 328.289 752.061 360.062 839.438C376.304 884.1 395.922 920.592 418.625 947C445.359 978.097 477 995.906 512 995.906L512 915.25C503.302 915.25 492.429 909.149 479.781 894.438C464.167 876.276 449.009 848.078 435.844 811.875C407.508 733.952 391.031 626.795 391.031 512C391.031 397.205 407.508 290.048 435.844 212.125C449.009 175.922 464.167 147.724 479.781 129.563C492.429 114.851 503.302 108.75 512 108.75L512 28.0938Z" fill="#ffffff" fill-rule="nonzero" opacity="1" stroke="none"/>
</g>
</g>
</svg>
